<mxfile host="" modified="2020-07-01T03:31:30.067Z" agent="5.0 (Macintosh; Intel Mac OS X 10_14_3) AppleWebKit/537.36 (KHTML, like Gecko) Code/1.46.1 Chrome/78.0.3904.130 Electron/7.3.1 Safari/537.36" etag="j9kVLOhmewiNAJPb8m7S" version="13.1.3" pages="2">
    <diagram id="6hGFLwfOUW9BJ-s0fimq" name="流程图">
        <mxGraphModel dx="525" dy="447" grid="1" gridSize="10" guides="1" tooltips="1" connect="1" arrows="1" fold="1" page="1" pageScale="1" pageWidth="827" pageHeight="1169" math="0" shadow="0">
            <root>
                <mxCell id="0"/>
                <mxCell id="1" parent="0"/>
                <mxCell id="7" style="edgeStyle=orthogonalEdgeStyle;rounded=0;orthogonalLoop=1;jettySize=auto;html=1;exitX=0.5;exitY=1;exitDx=0;exitDy=0;entryX=0.5;entryY=0;entryDx=0;entryDy=0;" parent="1" source="2" target="3" edge="1">
                    <mxGeometry relative="1" as="geometry"/>
                </mxCell>
                <mxCell id="2" value="&lt;font style=&quot;font-size: 24px&quot;&gt;组卷&lt;/font&gt;" style="rounded=1;whiteSpace=wrap;html=1;" parent="1" vertex="1">
                    <mxGeometry x="160" y="60" width="120" height="60" as="geometry"/>
                </mxCell>
                <mxCell id="8" style="edgeStyle=orthogonalEdgeStyle;rounded=0;orthogonalLoop=1;jettySize=auto;html=1;exitX=0.5;exitY=1;exitDx=0;exitDy=0;entryX=0.5;entryY=0;entryDx=0;entryDy=0;" parent="1" source="3" target="4" edge="1">
                    <mxGeometry relative="1" as="geometry"/>
                </mxCell>
                <mxCell id="11" style="edgeStyle=orthogonalEdgeStyle;rounded=0;orthogonalLoop=1;jettySize=auto;html=1;exitX=1;exitY=0.5;exitDx=0;exitDy=0;" parent="1" source="3" edge="1">
                    <mxGeometry relative="1" as="geometry">
                        <mxPoint x="330" y="180" as="targetPoint"/>
                    </mxGeometry>
                </mxCell>
                <mxCell id="3" value="&lt;font style=&quot;font-size: 24px&quot;&gt;答题&lt;/font&gt;" style="rounded=1;whiteSpace=wrap;html=1;" parent="1" vertex="1">
                    <mxGeometry x="160" y="150" width="120" height="60" as="geometry"/>
                </mxCell>
                <mxCell id="9" style="edgeStyle=orthogonalEdgeStyle;rounded=0;orthogonalLoop=1;jettySize=auto;html=1;exitX=0.5;exitY=1;exitDx=0;exitDy=0;entryX=0.5;entryY=0;entryDx=0;entryDy=0;" parent="1" source="4" target="5" edge="1">
                    <mxGeometry relative="1" as="geometry"/>
                </mxCell>
                <mxCell id="4" value="&lt;font style=&quot;font-size: 24px&quot;&gt;判卷&lt;/font&gt;" style="rounded=1;whiteSpace=wrap;html=1;" parent="1" vertex="1">
                    <mxGeometry x="160" y="240" width="120" height="60" as="geometry"/>
                </mxCell>
                <mxCell id="10" style="edgeStyle=orthogonalEdgeStyle;rounded=0;orthogonalLoop=1;jettySize=auto;html=1;exitX=0.5;exitY=1;exitDx=0;exitDy=0;entryX=0.5;entryY=0;entryDx=0;entryDy=0;" parent="1" source="5" target="6" edge="1">
                    <mxGeometry relative="1" as="geometry"/>
                </mxCell>
                <mxCell id="5" value="&lt;font style=&quot;font-size: 24px&quot;&gt;报告&lt;/font&gt;" style="rounded=1;whiteSpace=wrap;html=1;" parent="1" vertex="1">
                    <mxGeometry x="160" y="330" width="120" height="60" as="geometry"/>
                </mxCell>
                <mxCell id="6" value="&lt;font style=&quot;font-size: 24px&quot;&gt;分析&lt;/font&gt;" style="rounded=1;whiteSpace=wrap;html=1;" parent="1" vertex="1">
                    <mxGeometry x="160" y="420" width="120" height="60" as="geometry"/>
                </mxCell>
                <mxCell id="12" value="&lt;font style=&quot;font-size: 24px&quot;&gt;防作弊&lt;/font&gt;" style="rounded=1;whiteSpace=wrap;html=1;" parent="1" vertex="1">
                    <mxGeometry x="330" y="150" width="120" height="60" as="geometry"/>
                </mxCell>
                <mxCell id="17" style="edgeStyle=orthogonalEdgeStyle;rounded=0;orthogonalLoop=1;jettySize=auto;html=1;exitX=0.5;exitY=1;exitDx=0;exitDy=0;entryX=0.5;entryY=0;entryDx=0;entryDy=0;fontStyle=1" parent="1" source="18" target="21" edge="1">
                    <mxGeometry relative="1" as="geometry"/>
                </mxCell>
                <mxCell id="18" value="&lt;font style=&quot;font-size: 24px&quot;&gt;组卷&lt;/font&gt;" style="rounded=1;whiteSpace=wrap;html=1;fontStyle=1" parent="1" vertex="1">
                    <mxGeometry x="990" y="20" width="120" height="60" as="geometry"/>
                </mxCell>
                <mxCell id="19" style="edgeStyle=orthogonalEdgeStyle;rounded=0;orthogonalLoop=1;jettySize=auto;html=1;exitX=0.5;exitY=1;exitDx=0;exitDy=0;entryX=0.5;entryY=0;entryDx=0;entryDy=0;fontStyle=1" parent="1" source="21" target="23" edge="1">
                    <mxGeometry relative="1" as="geometry"/>
                </mxCell>
                <mxCell id="20" style="edgeStyle=orthogonalEdgeStyle;rounded=0;orthogonalLoop=1;jettySize=auto;html=1;exitX=1;exitY=0.5;exitDx=0;exitDy=0;fontStyle=1" parent="1" source="21" edge="1">
                    <mxGeometry relative="1" as="geometry">
                        <mxPoint x="1160" y="140" as="targetPoint"/>
                    </mxGeometry>
                </mxCell>
                <mxCell id="21" value="&lt;font style=&quot;font-size: 24px&quot;&gt;答题&lt;/font&gt;" style="rounded=1;whiteSpace=wrap;html=1;fontStyle=1" parent="1" vertex="1">
                    <mxGeometry x="990" y="110" width="120" height="60" as="geometry"/>
                </mxCell>
                <mxCell id="22" style="edgeStyle=orthogonalEdgeStyle;rounded=0;orthogonalLoop=1;jettySize=auto;html=1;exitX=0.5;exitY=1;exitDx=0;exitDy=0;entryX=0.5;entryY=0;entryDx=0;entryDy=0;fontStyle=1" parent="1" source="23" target="25" edge="1">
                    <mxGeometry relative="1" as="geometry"/>
                </mxCell>
                <mxCell id="23" value="&lt;font style=&quot;font-size: 24px&quot;&gt;判卷&lt;/font&gt;" style="rounded=1;whiteSpace=wrap;html=1;fontStyle=1" parent="1" vertex="1">
                    <mxGeometry x="990" y="200" width="120" height="60" as="geometry"/>
                </mxCell>
                <mxCell id="24" style="edgeStyle=orthogonalEdgeStyle;rounded=0;orthogonalLoop=1;jettySize=auto;html=1;exitX=0.5;exitY=1;exitDx=0;exitDy=0;entryX=0.5;entryY=0;entryDx=0;entryDy=0;fontStyle=1" parent="1" source="25" target="26" edge="1">
                    <mxGeometry relative="1" as="geometry"/>
                </mxCell>
                <mxCell id="25" value="&lt;font style=&quot;font-size: 24px&quot;&gt;报告&lt;/font&gt;" style="rounded=1;whiteSpace=wrap;html=1;fontStyle=1" parent="1" vertex="1">
                    <mxGeometry x="990" y="290" width="120" height="60" as="geometry"/>
                </mxCell>
                <mxCell id="26" value="&lt;font style=&quot;font-size: 24px&quot;&gt;分析&lt;/font&gt;" style="rounded=1;whiteSpace=wrap;html=1;fontStyle=1" parent="1" vertex="1">
                    <mxGeometry x="990" y="380" width="120" height="60" as="geometry"/>
                </mxCell>
                <mxCell id="27" value="&lt;font style=&quot;font-size: 24px&quot;&gt;防作弊&lt;/font&gt;" style="rounded=1;whiteSpace=wrap;html=1;fontStyle=1" parent="1" vertex="1">
                    <mxGeometry x="1160" y="110" width="120" height="60" as="geometry"/>
                </mxCell>
                <mxCell id="37" value="&lt;ol&gt;&lt;li&gt;&lt;span&gt;高并发下&lt;/span&gt;数据丢失&lt;/li&gt;&lt;li&gt;&lt;span&gt;口语/文件上传&lt;/span&gt;&lt;/li&gt;&lt;li&gt;&lt;span&gt;口语/本地难测&lt;/span&gt;&lt;/li&gt;&lt;/ol&gt;" style="shape=document;whiteSpace=wrap;html=1;boundedLbl=1;fontSize=19;align=left;size=0.2;" parent="1" vertex="1">
                    <mxGeometry x="710" y="120" width="210" height="150" as="geometry"/>
                </mxCell>
                <mxCell id="38" value="&lt;ol&gt;&lt;li&gt;复杂题库&lt;/li&gt;&lt;li&gt;自主组卷&lt;/li&gt;&lt;/ol&gt;" style="shape=document;whiteSpace=wrap;html=1;boundedLbl=1;fontSize=19;align=left;size=0.2;" parent="1" vertex="1">
                    <mxGeometry x="710" y="5" width="210" height="90" as="geometry"/>
                </mxCell>
                <mxCell id="39" value="&lt;ol&gt;&lt;li&gt;AI 判卷的敏感延迟&lt;/li&gt;&lt;/ol&gt;" style="shape=document;whiteSpace=wrap;html=1;boundedLbl=1;fontSize=19;align=left;size=0.2;" parent="1" vertex="1">
                    <mxGeometry x="710" y="290" width="210" height="100" as="geometry"/>
                </mxCell>
                <mxCell id="40" value="&lt;ol&gt;&lt;li&gt;班级报告批量 PDF 下载&lt;/li&gt;&lt;/ol&gt;" style="shape=document;whiteSpace=wrap;html=1;boundedLbl=1;fontSize=19;align=left;size=0.2;" parent="1" vertex="1">
                    <mxGeometry x="710" y="410" width="210" height="100" as="geometry"/>
                </mxCell>
                <mxCell id="41" value="&lt;ol&gt;&lt;li&gt;答题轨迹及混淆分析&lt;/li&gt;&lt;/ol&gt;" style="shape=document;whiteSpace=wrap;html=1;boundedLbl=1;fontSize=19;align=left;size=0.2;" parent="1" vertex="1">
                    <mxGeometry x="1190" y="410" width="210" height="100" as="geometry"/>
                </mxCell>
                <mxCell id="42" value="&lt;ol&gt;&lt;li&gt;AB 卷&lt;/li&gt;&lt;li&gt;单设备登录&lt;/li&gt;&lt;li&gt;离屏检测&lt;/li&gt;&lt;li&gt;IP 限制&lt;/li&gt;&lt;/ol&gt;" style="shape=document;whiteSpace=wrap;html=1;boundedLbl=1;fontSize=19;align=left;size=0.2;" parent="1" vertex="1">
                    <mxGeometry x="1190" y="210" width="210" height="120" as="geometry"/>
                </mxCell>
            </root>
        </mxGraphModel>
    </diagram>
    <diagram id="DMvCN-1CsEETud02ImmO" name="技术架构图">
        <mxGraphModel dx="2140" dy="2287" grid="1" gridSize="10" guides="1" tooltips="1" connect="1" arrows="1" fold="1" page="1" pageScale="1" pageWidth="827" pageHeight="1169" math="0" shadow="0">
            <root>
                <mxCell id="fO21qEThZugXoKiR5Kfa-0"/>
                <mxCell id="fO21qEThZugXoKiR5Kfa-1" parent="fO21qEThZugXoKiR5Kfa-0"/>
                <mxCell id="ggmpniyVh68JqF6mQt1L-16" style="edgeStyle=orthogonalEdgeStyle;rounded=0;orthogonalLoop=1;jettySize=auto;html=1;exitX=0.5;exitY=1;exitDx=0;exitDy=0;entryX=0.5;entryY=0;entryDx=0;entryDy=0;fontSize=19;" parent="fO21qEThZugXoKiR5Kfa-1" source="ggmpniyVh68JqF6mQt1L-0" target="ggmpniyVh68JqF6mQt1L-3" edge="1">
                    <mxGeometry relative="1" as="geometry"/>
                </mxCell>
                <mxCell id="IdepWZcJ-1NDi_05N937-1" style="edgeStyle=orthogonalEdgeStyle;rounded=0;orthogonalLoop=1;jettySize=auto;html=1;exitX=0;exitY=0.5;exitDx=0;exitDy=0;entryX=1;entryY=0.25;entryDx=0;entryDy=0;" edge="1" parent="fO21qEThZugXoKiR5Kfa-1" source="ggmpniyVh68JqF6mQt1L-0" target="ggmpniyVh68JqF6mQt1L-10">
                    <mxGeometry relative="1" as="geometry">
                        <mxPoint x="70" y="265.28571428571433" as="targetPoint"/>
                    </mxGeometry>
                </mxCell>
                <mxCell id="IdepWZcJ-1NDi_05N937-12" style="edgeStyle=orthogonalEdgeStyle;rounded=0;orthogonalLoop=1;jettySize=auto;html=1;exitX=1;exitY=0.5;exitDx=0;exitDy=0;entryX=0;entryY=0.5;entryDx=0;entryDy=0;" edge="1" parent="fO21qEThZugXoKiR5Kfa-1" source="ggmpniyVh68JqF6mQt1L-0" target="IdepWZcJ-1NDi_05N937-6">
                    <mxGeometry relative="1" as="geometry"/>
                </mxCell>
                <mxCell id="IdepWZcJ-1NDi_05N937-23" style="edgeStyle=orthogonalEdgeStyle;rounded=0;orthogonalLoop=1;jettySize=auto;html=1;exitX=0.25;exitY=0;exitDx=0;exitDy=0;entryX=0.5;entryY=1;entryDx=0;entryDy=0;" edge="1" parent="fO21qEThZugXoKiR5Kfa-1" source="ggmpniyVh68JqF6mQt1L-0" target="IdepWZcJ-1NDi_05N937-14">
                    <mxGeometry relative="1" as="geometry"/>
                </mxCell>
                <mxCell id="IdepWZcJ-1NDi_05N937-24" style="edgeStyle=orthogonalEdgeStyle;rounded=0;orthogonalLoop=1;jettySize=auto;html=1;exitX=0.75;exitY=0;exitDx=0;exitDy=0;entryX=0.5;entryY=1;entryDx=0;entryDy=0;" edge="1" parent="fO21qEThZugXoKiR5Kfa-1" source="ggmpniyVh68JqF6mQt1L-0" target="IdepWZcJ-1NDi_05N937-22">
                    <mxGeometry relative="1" as="geometry"/>
                </mxCell>
                <mxCell id="ggmpniyVh68JqF6mQt1L-0" value="" style="rounded=0;whiteSpace=wrap;html=1;shadow=0;fillColor=#ffe6cc;fontSize=19;align=center;labelBackgroundColor=none;strokeColor=#d79b00;" parent="fO21qEThZugXoKiR5Kfa-1" vertex="1">
                    <mxGeometry x="145" y="160" width="295" height="210" as="geometry"/>
                </mxCell>
                <mxCell id="ggmpniyVh68JqF6mQt1L-1" value="考试微前端" style="rounded=1;whiteSpace=wrap;html=1;shadow=0;fillColor=#0050ef;fontSize=19;align=center;strokeColor=#001DBC;fontColor=#ffffff;" parent="fO21qEThZugXoKiR5Kfa-1" vertex="1">
                    <mxGeometry x="232.5" y="190" width="120" height="60" as="geometry"/>
                </mxCell>
                <mxCell id="ggmpniyVh68JqF6mQt1L-2" value="考试微服务" style="rounded=1;whiteSpace=wrap;html=1;shadow=0;fillColor=#0050ef;fontSize=19;align=center;strokeColor=#001DBC;fontColor=#ffffff;" parent="fO21qEThZugXoKiR5Kfa-1" vertex="1">
                    <mxGeometry x="232.5" y="280" width="120" height="60" as="geometry"/>
                </mxCell>
                <mxCell id="IdepWZcJ-1NDi_05N937-3" style="edgeStyle=orthogonalEdgeStyle;rounded=0;orthogonalLoop=1;jettySize=auto;html=1;exitX=0;exitY=0.5;exitDx=0;exitDy=0;entryX=1;entryY=0.75;entryDx=0;entryDy=0;" edge="1" parent="fO21qEThZugXoKiR5Kfa-1" source="ggmpniyVh68JqF6mQt1L-3" target="ggmpniyVh68JqF6mQt1L-10">
                    <mxGeometry relative="1" as="geometry"/>
                </mxCell>
                <mxCell id="ggmpniyVh68JqF6mQt1L-3" value="微服务" style="rounded=0;whiteSpace=wrap;html=1;shadow=0;fillColor=#fad9d5;fontSize=19;align=center;verticalAlign=top;spacingTop=11;strokeColor=#ae4132;" parent="fO21qEThZugXoKiR5Kfa-1" vertex="1">
                    <mxGeometry x="145" y="430" width="295" height="250" as="geometry"/>
                </mxCell>
                <mxCell id="ggmpniyVh68JqF6mQt1L-4" value="文件服务" style="rounded=1;whiteSpace=wrap;html=1;shadow=0;fillColor=none;fontSize=19;align=center;" parent="fO21qEThZugXoKiR5Kfa-1" vertex="1">
                    <mxGeometry x="160" y="500" width="120" height="60" as="geometry"/>
                </mxCell>
                <mxCell id="ggmpniyVh68JqF6mQt1L-6" value="判分AI服务" style="rounded=1;whiteSpace=wrap;html=1;shadow=0;fillColor=#0050ef;fontSize=19;align=center;strokeColor=#001DBC;fontColor=#ffffff;" parent="fO21qEThZugXoKiR5Kfa-1" vertex="1">
                    <mxGeometry x="294" y="500" width="120" height="60" as="geometry"/>
                </mxCell>
                <mxCell id="ggmpniyVh68JqF6mQt1L-7" value="PDF 服务" style="rounded=1;whiteSpace=wrap;html=1;shadow=0;fillColor=#0050ef;fontSize=19;align=center;strokeColor=#001DBC;fontColor=#ffffff;" parent="fO21qEThZugXoKiR5Kfa-1" vertex="1">
                    <mxGeometry x="160" y="590" width="120" height="60" as="geometry"/>
                </mxCell>
                <mxCell id="IdepWZcJ-1NDi_05N937-19" style="edgeStyle=orthogonalEdgeStyle;rounded=0;orthogonalLoop=1;jettySize=auto;html=1;entryX=0.25;entryY=1;entryDx=0;entryDy=0;" edge="1" parent="fO21qEThZugXoKiR5Kfa-1" source="ggmpniyVh68JqF6mQt1L-10" target="IdepWZcJ-1NDi_05N937-14">
                    <mxGeometry relative="1" as="geometry"/>
                </mxCell>
                <mxCell id="ggmpniyVh68JqF6mQt1L-10" value="监控及日志" style="rounded=0;whiteSpace=wrap;html=1;shadow=0;fillColor=#d5e8d4;fontSize=19;align=center;verticalAlign=top;spacingTop=10;strokeColor=#82b366;" parent="fO21qEThZugXoKiR5Kfa-1" vertex="1">
                    <mxGeometry x="-140" y="160" width="190" height="420" as="geometry"/>
                </mxCell>
                <mxCell id="ggmpniyVh68JqF6mQt1L-11" value="Grafana" style="rounded=1;whiteSpace=wrap;html=1;shadow=0;fillColor=none;fontSize=19;align=center;" parent="fO21qEThZugXoKiR5Kfa-1" vertex="1">
                    <mxGeometry x="-100" y="340" width="120" height="60" as="geometry"/>
                </mxCell>
                <mxCell id="ggmpniyVh68JqF6mQt1L-12" value="Alert" style="rounded=1;whiteSpace=wrap;html=1;shadow=0;fillColor=none;fontSize=19;align=center;" parent="fO21qEThZugXoKiR5Kfa-1" vertex="1">
                    <mxGeometry x="-100" y="420" width="120" height="60" as="geometry"/>
                </mxCell>
                <mxCell id="ggmpniyVh68JqF6mQt1L-14" value="Prometheus" style="rounded=1;whiteSpace=wrap;html=1;shadow=0;fillColor=none;fontSize=19;align=center;" parent="fO21qEThZugXoKiR5Kfa-1" vertex="1">
                    <mxGeometry x="-100" y="260" width="120" height="60" as="geometry"/>
                </mxCell>
                <mxCell id="ggmpniyVh68JqF6mQt1L-15" value="ES" style="rounded=1;whiteSpace=wrap;html=1;shadow=0;fontSize=19;align=center;fillColor=none;" parent="fO21qEThZugXoKiR5Kfa-1" vertex="1">
                    <mxGeometry x="-100" y="500" width="120" height="60" as="geometry"/>
                </mxCell>
                <mxCell id="IdepWZcJ-1NDi_05N937-5" value="题库服务" style="rounded=1;whiteSpace=wrap;html=1;shadow=0;fillColor=#0050ef;fontSize=19;align=center;strokeColor=#001DBC;fontColor=#ffffff;" vertex="1" parent="fO21qEThZugXoKiR5Kfa-1">
                    <mxGeometry x="292.5" y="590" width="120" height="60" as="geometry"/>
                </mxCell>
                <mxCell id="IdepWZcJ-1NDi_05N937-6" value="npm 私有库建设" style="rounded=0;whiteSpace=wrap;html=1;shadow=0;fillColor=#d0cee2;fontSize=19;align=center;verticalAlign=top;spacingTop=10;strokeColor=#56517e;" vertex="1" parent="fO21qEThZugXoKiR5Kfa-1">
                    <mxGeometry x="500" y="160" width="220" height="450" as="geometry"/>
                </mxCell>
                <mxCell id="IdepWZcJ-1NDi_05N937-7" value="基础UI组件" style="rounded=1;whiteSpace=wrap;html=1;shadow=0;fillColor=#0050ef;fontSize=19;align=center;strokeColor=#001DBC;fontColor=#ffffff;" vertex="1" parent="fO21qEThZugXoKiR5Kfa-1">
                    <mxGeometry x="548.75" y="240" width="120" height="60" as="geometry"/>
                </mxCell>
                <mxCell id="IdepWZcJ-1NDi_05N937-8" value="基础业务组件" style="rounded=1;whiteSpace=wrap;html=1;shadow=0;fillColor=#0050ef;fontSize=19;align=center;strokeColor=#001DBC;fontColor=#ffffff;" vertex="1" parent="fO21qEThZugXoKiR5Kfa-1">
                    <mxGeometry x="548.75" y="330" width="120" height="60" as="geometry"/>
                </mxCell>
                <mxCell id="IdepWZcJ-1NDi_05N937-9" value="限流中间件" style="rounded=1;whiteSpace=wrap;html=1;shadow=0;fillColor=none;fontSize=19;align=center;" vertex="1" parent="fO21qEThZugXoKiR5Kfa-1">
                    <mxGeometry x="548.75" y="420" width="120" height="60" as="geometry"/>
                </mxCell>
                <mxCell id="IdepWZcJ-1NDi_05N937-10" value="IP 限制中间件" style="rounded=1;whiteSpace=wrap;html=1;shadow=0;fillColor=none;fontSize=19;align=center;" vertex="1" parent="fO21qEThZugXoKiR5Kfa-1">
                    <mxGeometry x="548.75" y="510" width="122.5" height="60" as="geometry"/>
                </mxCell>
                <mxCell id="IdepWZcJ-1NDi_05N937-14" value="存储" style="rounded=0;whiteSpace=wrap;html=1;shadow=0;fillColor=#fff2cc;fontSize=19;align=center;verticalAlign=top;spacingTop=10;gradientColor=#ffd966;strokeColor=#d6b656;" vertex="1" parent="fO21qEThZugXoKiR5Kfa-1">
                    <mxGeometry x="-140" y="-80" width="640" height="160" as="geometry"/>
                </mxCell>
                <mxCell id="IdepWZcJ-1NDi_05N937-15" value="PostgreSQL" style="rounded=1;whiteSpace=wrap;html=1;shadow=0;fillColor=none;fontSize=19;align=center;" vertex="1" parent="fO21qEThZugXoKiR5Kfa-1">
                    <mxGeometry x="-100" y="-20" width="120" height="60" as="geometry"/>
                </mxCell>
                <mxCell id="IdepWZcJ-1NDi_05N937-16" value="Redis" style="rounded=1;whiteSpace=wrap;html=1;shadow=0;fillColor=none;fontSize=19;align=center;" vertex="1" parent="fO21qEThZugXoKiR5Kfa-1">
                    <mxGeometry x="50" y="-20" width="120" height="60" as="geometry"/>
                </mxCell>
                <mxCell id="IdepWZcJ-1NDi_05N937-17" value="OSS" style="rounded=1;whiteSpace=wrap;html=1;shadow=0;fillColor=none;fontSize=19;align=center;" vertex="1" parent="fO21qEThZugXoKiR5Kfa-1">
                    <mxGeometry x="202.5" y="-20" width="120" height="60" as="geometry"/>
                </mxCell>
                <mxCell id="IdepWZcJ-1NDi_05N937-18" value="MQ" style="rounded=1;whiteSpace=wrap;html=1;shadow=0;fillColor=none;fontSize=19;align=center;" vertex="1" parent="fO21qEThZugXoKiR5Kfa-1">
                    <mxGeometry x="350" y="-20" width="120" height="60" as="geometry"/>
                </mxCell>
                <mxCell id="IdepWZcJ-1NDi_05N937-20" value="" style="rounded=0;whiteSpace=wrap;html=1;shadow=0;fillColor=#b1ddf0;fontSize=19;align=center;strokeColor=#10739e;" vertex="1" parent="fO21qEThZugXoKiR5Kfa-1">
                    <mxGeometry x="532" y="-80" width="188" height="210" as="geometry"/>
                </mxCell>
                <mxCell id="IdepWZcJ-1NDi_05N937-21" value="GA 打点" style="rounded=1;whiteSpace=wrap;html=1;shadow=0;fillColor=none;fontSize=19;align=center;" vertex="1" parent="fO21qEThZugXoKiR5Kfa-1">
                    <mxGeometry x="560" y="-20" width="120" height="60" as="geometry"/>
                </mxCell>
                <mxCell id="IdepWZcJ-1NDi_05N937-22" value="Sentry 异常" style="rounded=1;whiteSpace=wrap;html=1;shadow=0;fillColor=none;fontSize=19;align=center;strokeColor=#56517e;" vertex="1" parent="fO21qEThZugXoKiR5Kfa-1">
                    <mxGeometry x="560" y="60" width="120" height="60" as="geometry"/>
                </mxCell>
            </root>
        </mxGraphModel>
    </diagram>
</mxfile>